<svg xmlns="http://www.w3.org/2000/svg" width="512" height="512" viewBox="0 0 512 512" role="img" aria-labelledby="title desc">
  <title id="title">MatchaTime Logo</title>
  <desc id="desc">Logo MatchaTime dengan latar hijau dan simbol putih.</desc>
  <rect width="512" height="512" fill="#214f2b"/>
  <g fill="#fff">
    <circle cx="214" cy="178" r="10"/>
    <circle cx="298" cy="178" r="10"/>
    <path d="M152 219h58c7 0 13 5 13 12s-6 12-13 12h-11l-19 48c-3 8-10 13-19 13h-20c-8 0-13-8-10-15l18-46h-7c-7 0-13-5-13-12s6-12 13-12z"/>
    <path d="M200 246h29l24 37c4 6 2 14-4 18l-10 6c-6 4-14 2-18-4l-21-32v-25z"/>
    <path d="M360 219h-58c-7 0-13 5-13 12s6 12 13 12h11l19 48c3 8 10 13 19 13h20c8 0 13-8 10-15l-18-46h7c7 0 13-5 13-12s-6-12-13-12z"/>
    <path d="M312 246h-29l-24 37c-4 6-2 14 4 18l10 6c6 4 14 2 18-4l21-32v-25z"/>
    <rect x="226" y="221" width="60" height="24" rx="12"/>
    <path d="M236 265c0-12 9-21 20-21s20 9 20 21v18h-40v-18z"/>
  </g>
  <text x="256" y="365" text-anchor="middle" fill="#fff" font-family="Poppins, Arial, sans-serif" font-size="46" font-weight="800" letter-spacing="0">MATCHATIME</text>
</svg>
